<svg
      xmlns="http://www.w3.org/2000/svg"
      xmlnsSvgjs="http://svgjs.com/svgjs"
      xmlnsXlink="http://www.w3.org/1999/xlink"
      width="60"
      height="60"
      version="1.1"
    >
      <svg
        xmlns="http://www.w3.org/2000/svg"
        width="60"
        height="60"
        fillRule="evenodd"
        clipRule="evenodd"
        imageRendering="optimizeQuality"
        shapeRendering="geometricPrecision"
        textRendering="geometricPrecision"
        viewBox="0 0 1707 1707"
      >
        <path
          fill="#f9fafb"
          fillRule="nonzero"
          d="M216 0h1275c118 0 216 97 216 216v1275c0 118-98 216-216 216H216c-119 0-216-98-216-216V216C0 97 97 0 216 0zm1275 40H216c-97 0-176 79-176 176v1275c0 96 79 176 176 176h1275c96 0 176-80 176-176V216c0-97-80-176-176-176z"
          className="color2b1330 svgShape"
        ></path>
        <path
          fill="#f9fafb"
          fillRule="nonzero"
          d="M224 104h1259c66 0 120 54 120 120v1259c0 66-54 120-120 120H224c-66 0-120-54-120-120V224c0-66 54-120 120-120zm1259 40H224c-44 0-80 36-80 80v1259c0 44 36 80 80 80h1259c44 0 80-36 80-80V224c0-44-36-80-80-80z"
          className="color2b1330 svgShape"
        ></path>
        <path
          fill="#f9fafb"
          fillRule="nonzero"
          d="M807 227c-313 49-342 408-175 379 90-15 52-104 95-161 65-85 282-76 277 90-6 196-258 142-297 411-49 340 140 244 156 188 22-78-13-180 45-244 40-44 243-100 265-316 13-120-43-244-146-308v1c-59-37-134-54-220-40zM505 421c70-214 356-304 543-189v1c55 30 105 93 131 148 67 141 41 311-80 424-57 53-149 98-161 112-44 48-13 147-36 228-28 98-292 190-235-205 42-288 292-241 297-406 4-125-163-119-205-65-35 46 4 156-120 177-129 22-171-110-134-225z"
          className="color2b1330 svgShape"
        ></path>
        <path
          fill="#f9fafb"
          fillRule="nonzero"
          d="M785 1270c113 0 170 137 90 217s-218 23-218-90c0-70 57-127 128-127zm61 65c-55-54-149-15-149 62 0 78 94 117 149 62 34-34 34-89 0-124z"
          className="color2b1330 svgShape"
        ></path>
        <path
          fill="#0ea5e9"
          d="M104 1483V224c0-66 54-120 120-120h1259c66 0 120 54 120 120v1259c0 66-54 120-120 120H224c-66 0-120-54-120-120zM1491 40H216c-97 0-176 79-176 176v1275c0 96 79 176 176 176h1275c96 0 176-80 176-176V216c0-97-80-176-176-176z"
          className="color006aff svgShape"
        ></path>
        <path
          fill="#f9fafb"
          d="M144 224v1259c0 44 36 80 80 80h1259c44 0 80-36 80-80V224c0-44-36-80-80-80H224c-44 0-80 36-80 80zm758 921c-28 98-292 190-235-205 42-288 292-241 297-406 4-125-163-119-205-65-35 46 4 156-120 177-129 22-171-110-134-225 70-214 356-304 543-189v1c55 30 105 93 131 148 67 141 41 311-80 424-57 53-149 98-161 112-44 48-13 147-36 228zm-245 252c0-70 57-127 128-127 113 0 170 137 90 217s-218 23-218-90z"
          className="colorcfdbfd svgShape"
        ></path>
        <path
          fill="#0ea5e9"
          d="M846 1335c-55-54-149-15-149 62 0 78 94 117 149 62 34-34 34-89 0-124zM707 946c-49 340 140 244 156 188 22-78-13-180 45-244 40-44 243-100 265-316 13-120-43-244-146-308v1c-59-37-134-54-220-40-313 49-342 408-175 379 90-15 52-104 95-161 65-85 282-76 277 90-6 196-258 142-297 411z"
          className="color006aff svgShape"
        ></path>
      </svg>
    </svg>